# xmcd CD database file
#
# Track frame offsets:
#	150
#	19581
#	41204
#	64992
#	84398
#	111747
#	142364
#	169167
#	197984
#	225470
#
# Disc length: 3436 seconds
#
# Revision: 0
# Processed by: cddbd v1.5PL3 Copyright (c) Steve Scherf et al.
# Submitted via: CDex 1.50
#
DISCID=950d6a0a
DTITLE=Joe Pass - Live in Germany, 1992
DYEAR=2004
DGENRE=Jazz
TTITLE0=Put on a Happy Face
TTITLE1=Daquilo que eu sei
TTITLE2=Beautiful Love/Ellen's Tune
TTITLE3=They Can't Take That Away
TTITLE4=Summertime
TTITLE5=Sometime Ago
TTITLE6=Corcovado (Quiet Days And Quiet Nights)
TTITLE7=Old Folks
TTITLE8=Oleo
TTITLE9=I Can't Get Started
EXTD=YEAR: 2004
EXTT0=
EXTT1=
EXTT2=
EXTT3=
EXTT4=
EXTT5=
EXTT6=
EXTT7=
EXTT8=
EXTT9=
PLAYORDER=
